<svg width="200" height="60" viewBox="0 0 200 60" fill="none" xmlns="http://www.w3.org/2000/svg">
<path d="M59.3223 40.9423C59.3223 44.1429 57.7043 46.4249 53.1844 46.4249C52.1784 46.4249 50.8584 46.39 49.9364 46.3783V47.0309C49.9364 49.1031 49.9964 50.6626 50.2004 52.4669H46.3765C46.5565 50.6626 46.6285 49.1031 46.6285 47.0309V41.4084C46.6285 39.3012 46.5565 37.7068 46.3765 35.8676C47.9824 35.8676 50.3084 35.7627 53.2084 35.7627C57.2724 35.7627 59.3223 37.2523 59.3223 40.9423ZM52.4424 43.805C54.8764 43.805 55.9184 42.968 55.9184 40.9753C55.9184 38.8215 54.3484 38.472 52.9824 38.472H50.0204C49.9604 39.5421 49.9364 40.6374 49.9364 41.9173V43.8031H52.4424V43.805Z" fill="#E6E6E6"/>
<path d="M61.7384 52.4687C61.8944 50.7927 61.9784 49.338 61.9784 47.4173V46.252C61.9784 44.506 61.8584 42.7018 61.4624 40.8743L64.4584 40.7228L64.6624 42.9582H64.9264C66.0404 41.1306 67.3483 40.5713 68.3783 40.5713C68.7623 40.5713 69.2403 40.6179 69.6483 40.781L69.3843 43.9001C68.8323 43.7253 68.2083 43.5622 67.8023 43.5622C67.0343 43.5622 65.8724 43.8884 65.0204 45.6577V47.5668C65.0204 49.3361 65.0924 50.7907 65.2724 52.4668H61.7364L61.7384 52.4687Z" fill="#E6E6E6"/>
<path d="M70.7163 46.6249C70.7163 43.1563 72.9343 40.5713 76.9142 40.5713C80.8942 40.5713 83.1242 43.2126 83.1242 46.6249C83.1242 50.0372 80.8462 52.76 76.9742 52.76C72.7423 52.76 70.7163 49.8624 70.7163 46.6249ZM80.0182 46.6249C80.0182 44.506 78.9282 43.1446 76.9622 43.0164C74.8883 43.1096 73.8203 44.5992 73.8203 46.6249C73.8203 48.6505 74.8623 50.2333 76.9622 50.3149C79.0362 50.2333 80.0182 48.5922 80.0182 46.6249Z" fill="#E6E6E6"/>
<path d="M84.0176 57.0319C85.1556 55.4491 85.8276 53.8294 85.8276 51.6523L85.8396 47.4145V46.2493C85.8396 44.0255 85.7316 42.5476 85.5636 40.8715L89.1716 40.7783C88.9796 42.4777 88.8836 43.9789 88.8836 46.2493C88.8836 48.7643 89.0276 50.3005 89.0276 51.9882C89.0276 54.212 87.9476 55.9113 87.2176 56.9368L84.0156 57.03L84.0176 57.0319ZM85.3956 36.8339C85.3956 35.7871 85.9716 35.2627 87.3496 35.2627C88.7276 35.2627 89.2916 35.8337 89.2916 36.9504C89.2916 38.3235 88.7156 38.7896 87.3256 38.7896C85.9356 38.7896 85.3956 38.3235 85.3956 36.8339Z" fill="#E6E6E6"/>
<path d="M102.261 47.1862H94.6371C94.8051 49.142 96.0271 50.2936 98.425 50.2936C99.325 50.2936 100.811 49.9091 102.045 49.4333L102.141 52.0182C101.183 52.2979 99.815 52.764 98.077 52.764C93.5691 52.764 91.5791 50.2024 91.5791 46.6289C91.5791 43.0554 93.5811 40.5869 97.273 40.5869C100.449 40.5869 102.355 42.2746 102.355 45.6636C102.355 46.2696 102.331 46.7221 102.259 47.1882M94.7071 45.3024L99.623 45.2208C99.515 43.7079 98.579 42.8359 97.297 42.764C95.9911 42.8456 95.0191 43.8341 94.7071 45.3024Z" fill="#E6E6E6"/>
<path d="M104.212 46.6822C104.212 43.1884 106.298 40.582 110.158 40.582C111.548 40.582 113.046 41.0598 114.018 41.4094L113.802 44.0759C112.28 43.3884 111.068 43.1087 110.494 43.1087C108.588 43.1786 107.318 44.4702 107.318 46.6007C107.318 48.7312 108.66 50.2091 111.142 50.2441C111.884 50.2441 112.904 49.9761 113.862 49.4634L114.042 52.0716C113.132 52.3163 111.776 52.7125 110.41 52.7125C106.478 52.7125 104.212 50.1528 104.212 46.6822Z" fill="#E6E6E6"/>
<path d="M124.358 52.2237C123.77 52.4451 122.56 52.7597 121.528 52.7597C118.856 52.7597 117.416 51.641 117.416 48.9182C117.416 47.0906 117.464 45.2281 117.476 43.1443L115.438 43.3657V40.8739H117.476C117.464 39.5358 117.38 38.4074 117.236 37.1373L120.748 36.5449C120.592 38.0811 120.52 39.2911 120.496 40.8739H124.272V43.3657C123.014 43.2025 121.718 43.1093 120.496 43.0743V48.0326C120.496 49.5455 121.084 50.3146 122.366 50.3146C122.834 50.3146 123.564 50.0815 124.152 49.7436L124.356 52.2237H124.358Z" fill="#E6E6E6"/>
<path d="M131.577 52.5417C131.949 50.8074 132.249 49.1197 132.513 47.0824L133.233 41.5415C133.485 39.5275 133.629 37.8282 133.701 35.9424H137.633C138.245 38.0263 138.929 39.8422 139.695 41.7047L141.961 47.2339H142.189L144.395 41.7163C145.151 39.8305 145.809 38.0379 146.409 35.9424H150.268C150.364 37.8049 150.508 39.5042 150.772 41.5532L151.492 47.1174C151.756 49.1313 152.056 50.7491 152.45 52.5417H148.638C148.566 50.0286 148.398 47.7214 148.146 45.7326L147.606 41.4483H147.378L145.665 46.057C144.827 48.304 144.071 50.586 143.459 52.5417H140.701C140.115 50.6559 139.287 48.2457 138.423 46.0686L136.565 41.4464H136.337L135.809 45.7074C135.557 47.7097 135.377 50.015 135.305 52.5417H131.577Z" fill="#E6E6E6"/>
<path d="M165.044 47.2585H157.42C157.588 49.2142 158.81 50.3659 161.208 50.3659C162.108 50.3659 163.594 49.9814 164.828 49.5055L164.924 52.0905C163.966 52.3702 162.598 52.8363 160.86 52.8363C156.352 52.8363 154.362 50.2746 154.362 46.7011C154.362 43.1276 156.364 40.6592 160.056 40.6592C163.232 40.6592 165.138 42.3469 165.138 45.7359C165.138 46.3418 165.114 46.7943 165.042 47.2605M157.49 45.3747L162.406 45.2931C162.298 43.7802 161.364 42.9082 160.08 42.8363C158.774 42.9179 157.802 43.9064 157.49 45.3747Z" fill="#E6E6E6"/>
<path d="M167.629 52.541C167.785 50.8649 167.869 49.4103 167.869 47.4895V46.3243C167.869 44.5783 167.749 42.7741 167.353 40.9465L170.351 40.795L170.555 43.0304H170.819C171.932 41.2029 173.24 40.6436 174.27 40.6436C174.654 40.6436 175.132 40.6902 175.54 40.8533L175.276 43.9724C174.724 43.7976 174.102 43.6344 173.694 43.6344C172.926 43.6344 171.764 43.9607 170.912 45.73V47.6391C170.912 49.4083 170.985 50.863 171.164 52.539H167.629V52.541Z" fill="#E6E6E6"/>
<path d="M176.602 46.7545C176.602 43.2606 178.688 40.6543 182.548 40.6543C183.938 40.6543 185.436 41.1321 186.408 41.4816L186.192 44.1482C184.67 43.4607 183.458 43.181 182.884 43.181C180.978 43.2509 179.708 44.5424 179.708 46.6729C179.708 48.8034 181.05 50.2814 183.532 50.3164C184.274 50.3164 185.294 50.0483 186.252 49.5356L186.432 52.1439C185.52 52.3886 184.166 52.7848 182.8 52.7848C178.868 52.7848 176.602 50.2251 176.602 46.7545Z" fill="#E6E6E6"/>
<path d="M200 40.9459C199.148 42.8317 198.562 44.263 197.398 47.1743L196.092 50.4332C194.906 53.3891 194.15 55.3331 193.636 57.0111L189.992 57.1043C190.806 55.6827 191.478 54.2048 192.078 52.7734C191.634 51.2255 191.046 49.6311 190.496 48.1415L189.728 46.0459C189.118 44.3815 188.434 42.6006 187.678 40.9478L191.262 40.8546C191.682 42.6355 192.148 44.3116 192.676 46.1042L193.646 49.433H193.922L194.99 46.1042C195.554 44.3582 196.058 42.6821 196.464 40.9478H200V40.9459Z" fill="#E6E6E6"/>
<path d="M47.0564 27.1196C46.9884 27.0788 46.9184 27.0419 46.8484 27.0069C46.6944 26.9312 46.5364 26.8632 46.3784 26.7953C45.8005 26.5447 45.2745 26.267 44.8425 25.8106C44.4165 25.3581 44.0965 24.824 43.6565 24.3831C42.5465 23.2761 40.9625 22.946 39.4005 23.8335C37.4565 24.9289 35.6386 26.2398 33.8326 27.5449C33.0426 28.1081 32.8846 28.1916 32.3466 27.3993C32.0486 26.9467 31.8406 26.4301 31.5186 26.0009C30.0046 23.9656 28.5826 21.8603 26.9207 19.9493C25.2807 18.0596 23.5427 16.1952 21.5847 14.6434C19.0967 12.6721 16.3568 10.9903 13.6888 9.24236C12.1468 8.23246 10.4168 7.4828 9.11884 6.13691C8.25085 5.23577 7.41886 4.30743 7.19686 3.02952C7.09086 2.39056 6.97286 1.75937 6.84686 1C6.22287 1.98854 5.61088 2.87026 5.09488 3.79083C4.76488 4.38123 4.45089 5.02796 4.32089 5.67857C4.10689 6.7817 4.03689 7.91589 3.90089 9.04427C3.87489 9.28315 3.82089 9.5162 3.78889 9.74343C3.6029 9.57641 3.3249 9.44434 3.2489 9.24819C3.0129 8.60923 2.8469 7.94114 2.60291 7.09243C2.23891 7.7916 1.86091 8.3451 1.64692 8.95881C0.750926 11.5457 0.924924 14.0258 2.52291 16.3408C2.64291 16.5117 2.66291 16.7506 2.75691 17.0342C1.60292 16.8691 1.05892 16.1816 0.474929 15.4319C-0.331062 17.1779 0.0209339 18.9083 0.556928 20.6077C1.10492 22.3361 2.20291 23.783 3.5549 25.0493C3.4929 25.1173 3.4389 25.1872 3.3769 25.2552C2.76691 24.9891 2.14691 24.7211 1.40892 24.3987C1.58092 24.8706 1.64892 25.2726 1.85491 25.5989C3.1989 27.8052 5.17888 29.4229 7.20886 30.9902C8.03285 31.6273 8.85484 32.274 9.74483 32.8275C11.6088 33.9772 13.4748 35.1114 15.4048 36.1388C16.4188 36.6807 17.5648 36.972 18.6527 37.3856C18.7727 37.4303 18.8667 37.5488 19.0407 37.6867C18.5947 37.8809 18.1727 37.9799 17.8747 38.2246C17.1148 38.8578 16.3708 39.5142 15.6948 40.2289C14.8948 41.0796 14.1508 41.9788 13.4388 42.8954C12.6108 43.9578 11.8768 45.0939 11.0188 46.1232C10.0448 47.2905 8.99284 48.3955 7.93885 49.5084C6.93086 50.5765 5.75687 51.4388 4.31289 51.8894C3.5609 52.1263 2.7789 52.2837 2.03491 52.4779C2.17491 53.4586 2.67691 54.0452 3.5489 54.1772C4.26889 54.286 5.01688 54.2374 5.74687 54.2238C6.33687 54.2141 6.91886 54.15 7.63885 54.1034C7.51286 54.3753 7.45886 54.5715 7.34686 54.7288C6.85486 55.4202 6.27087 56.063 5.86887 56.801C5.42688 57.6012 5.98087 58.2732 6.90086 58.1722C8.26885 58.0129 9.40884 57.3429 10.5448 56.6534C10.7508 56.5252 11.0048 56.4709 11.2108 56.3893C11.2528 57.1856 11.2588 57.8556 11.3428 58.5159C11.3928 58.9063 11.6848 59.186 12.0588 58.85C12.9868 58.0071 13.9088 57.1467 14.7368 56.2106C15.0988 55.8086 15.2968 55.8319 15.6688 56.0844C16.4628 56.6068 17.3628 56.6651 18.3347 56.6107C18.2687 56.4068 18.2407 56.2475 18.1727 56.096C17.3468 54.3617 16.8148 52.5575 16.8908 50.6193C16.9508 49.085 17.7987 48.0537 19.3567 47.7274C20.3167 47.5177 21.3107 47.4497 22.2767 47.2574C24.9587 46.7272 27.6326 46.1601 30.3106 45.6125C32.1846 45.2357 33.8386 44.3967 35.4066 43.3654C36.8305 42.4313 37.9025 41.1592 38.7145 39.7123C39.1385 38.9529 39.4325 38.1101 39.7305 37.2885C40.2285 35.9116 40.6585 34.5191 41.1565 33.1421C41.4865 32.2254 41.7425 31.2582 42.2505 30.4542C43.2625 28.8694 45.4445 27.9256 47.2224 27.2381C47.2084 27.2439 47.0664 27.1312 47.0464 27.1196H47.0564ZM42.3565 26.6496C42.2485 27.1235 41.7665 27.4226 41.2785 27.3196C40.7905 27.2148 40.4825 26.7467 40.5885 26.2728C40.6965 25.7989 41.1805 25.4999 41.6665 25.6028C42.1545 25.7077 42.4625 26.1777 42.3565 26.6496Z" fill="#E6E6E6"/>
<path d="M33.5463 26.0599C33.5483 26.058 36.7283 23.4167 37.0063 22.065C37.2843 20.7113 37.1003 18.2759 36.5883 17.5534C36.5883 17.5534 36.3123 17.8914 35.8363 18.3555C35.4623 18.6799 35.1323 18.9712 34.8023 19.2644C34.7723 19.2314 34.7323 19.2004 34.7023 19.1673C35.0163 18.4721 35.5863 17.9108 35.6143 17.0563C35.6403 16.2522 35.5783 15.5336 35.1323 14.7976C34.8203 15.32 34.7743 15.8988 34.0863 16.1571C34.4803 14.5412 34.3443 13.0458 33.7723 11.4727C33.6303 11.6882 33.5423 11.8048 33.4743 11.9349C33.1564 12.5564 32.8624 13.1953 32.5204 13.8071C32.0644 14.6208 31.6324 15.4559 31.0704 16.1959C30.3164 17.2058 29.2604 17.8894 28.0904 18.4235C27.9984 18.4662 27.9084 18.509 27.8164 18.5517C29.5804 20.7055 31.6624 23.3584 33.5483 26.056L33.5463 26.0599Z" fill="#E6E6E6"/>
</svg>
